<svg xmlns="http://www.w3.org/2000/svg" width="143" height="37" viewBox="0 0 143 37">
    <g fill="#1cab41" fill-rule="evenodd">
        <path d="M139.47 32.107c0 .588-.48 1.066-1.068 1.066h-5.049v3.299h5.05a4.37 4.37 0 0 0 4.365-4.365v-4.822h-3.299v4.822M137.752 10.976c-.09.036-.223.053-.4.053h-.379v-.862h.357c.235 0 .402.03.51.089.104.058.157.175.157.35 0 .182-.08.305-.245.37m.62 1.132c-.004-.065-.004-.12-.004-.18v-.17a.67.67 0 0 0-.129-.37c-.088-.126-.223-.203-.41-.232a.872.872 0 0 0 .342-.117c.158-.1.234-.256.234-.469 0-.3-.125-.499-.369-.604-.137-.056-.357-.085-.65-.085h-.833v2.38h.42v-.935h.329c.223 0 .377.027.467.074.15.09.224.272.224.547v.188l.01.075c.004.01.004.02.006.026l.007.024h.393l-.017-.03a.492.492 0 0 1-.02-.122"/>
        <path d="M138.75 12.408c-.366.366-.802.55-1.323.55-.518 0-.957-.184-1.322-.55a1.826 1.826 0 0 1-.537-1.328c0-.516.179-.955.541-1.319a1.784 1.784 0 0 1 1.318-.55c.517 0 .957.182 1.322.55a1.8 1.8 0 0 1 .54 1.319c0 .52-.178.963-.54 1.328m-1.322-3.493a2.09 2.09 0 0 0-1.528.634 2.081 2.081 0 0 0-.634 1.528c0 .6.21 1.116.63 1.538.421.426.931.64 1.532.64.6 0 1.115-.214 1.535-.64.423-.423.637-.938.637-1.538 0-.6-.214-1.108-.637-1.528a2.092 2.092 0 0 0-1.535-.634"/>
        <path d="M138.75 12.408c-.366.366-.802.55-1.323.55-.518 0-.957-.184-1.322-.55a1.826 1.826 0 0 1-.537-1.328c0-.516.179-.955.541-1.319a1.784 1.784 0 0 1 1.318-.55c.517 0 .957.182 1.322.55a1.8 1.8 0 0 1 .54 1.319c0 .52-.178.963-.54 1.328m-1.322-3.493a2.09 2.09 0 0 0-1.528.634 2.081 2.081 0 0 0-.634 1.528c0 .6.21 1.116.63 1.538.421.426.931.64 1.532.64.6 0 1.115-.214 1.535-.64.423-.423.637-.938.637-1.538 0-.6-.214-1.108-.637-1.528a2.092 2.092 0 0 0-1.535-.634M30.077 20.18l2.593-6.538c.018-.044.037-.083.056-.12.011-.02.022-.042.034-.06l.111-.181h.46l.11.18c.022.033.042.073.061.116l.03.065 2.593 6.538h-6.048zm7.176-8.276c-.9-2.092-1.87-2.73-4.152-2.73a9.91 9.91 0 0 0-.519.013c-1.587.083-2.49.582-3.199 1.818a7.86 7.86 0 0 0-.43.886l-6.345 16.028h4.4l1.462-3.686h9.262l1.462 3.686h4.399l-6.34-16.015zM59.744 9.122h-4.47l-5.688 9.167-.009.017a.77.77 0 0 1-.065.111l-.1.14-.17.017a.874.874 0 0 1-.166.004.857.857 0 0 1-.043-.003l-.18-.016-.1-.148a.85.85 0 0 1-.06-.104l-.005-.008-.004-.009-5.69-9.168h-4.47l6.47 10.696c.3.532.8 1.42 1.839 1.895l.222.103v6.103h4.16v-6.104l.221-.102c1.037-.475 1.54-1.363 1.839-1.894l6.47-10.697M20.468 15.868c-.069 1.092-.598 2.036-3.154 2.036h-3.003c-.375 0-.756.043-1.13.127l-.464.105v-4.884h4.597c3.164 0 3.164 1.571 3.164 2.326 0 .098-.004.194-.01.29zm4.175-.29c0-2.995-1.92-6.491-7.329-6.491H8.552v18.832h4.165V23.47c0-.602.909-1.4 1.594-1.4h3.003c4.893 0 6.925-2.862 7.27-5.624.036-.291.06-.582.06-.868zM65.469 9.074a6.522 6.522 0 0 0-2.382.44c-.009.003-.017.005-.025.009a5.604 5.604 0 0 0-2.613 2.119l-.004.006c-.029.044-.056.09-.084.135-.022.036-.045.07-.067.108l-.02.037c-.52.898-.812 1.967-.812 3.146v12.845h4.145V21.27H74.02v-4.161H63.607v-2.035c0-1.125 1.22-1.914 1.882-1.914h9.501V9.074h-9.521M112.433 9.174v11.73L101.591 9.767c-.384-.416-.881-.645-1.403-.645-1.013 0-2.106.765-2.106 2V27.92h4.08V16.187l10.853 11.098c.415.415.906.634 1.42.634.987 0 2.053-.775 2.053-2.027V9.174h-4.055M86.007 24.113a5.67 5.67 0 0 1-5.623-5.008h.001a5.785 5.785 0 0 1-.04-.655 5.669 5.669 0 0 1 5.953-5.654 5.67 5.67 0 0 1 5.371 5.654c0 .083-.009.165-.013.246h.007a5.669 5.669 0 0 1-5.656 5.417zm9.955-5.663c0-.17-.005-.341-.013-.511-.267-5.252-4.625-9.443-9.942-9.443-5.318 0-9.675 4.191-9.942 9.443a10.025 10.025 0 0 0-.003.912c.005.11.012.219.02.328.375 5.15 4.681 9.226 9.925 9.226 5.487 0 9.953-4.463 9.955-9.95v-.005zM124.687 23.658c-1.142 0-1.796-.522-1.796-1.433v-1.641h8.759v-4.262h-8.759V14.68c0-1.148 1.268-1.52 1.883-1.52h8.525V9.074h-8.246c-3.707 0-6.3 2.302-6.307 5.596l.001 7.912.038.333c.333 2.993 2.887 5.004 6.356 5.004h8.453v-4.261h-8.907M0 4.366v5.049h3.298v-5.05c0-.588.479-1.066 1.067-1.066h4.822V0H4.365A4.37 4.37 0 0 0 0 4.366"/>
    </g>
</svg>
